# 3ds Max Wavefront OBJ Exporter v0.97b - (c)2007 guruware
# File Created: 14.12.2013 16:17:55

mtllib cone_big_t.mtl

#
# object Cone001
#

v  0.000000 -2.733772 0.000000
v  5.745003 -2.733772 -1.539369
v  5.947665 -2.733772 0.000000
v  5.150829 -2.733772 -2.973832
v  4.205634 -2.733772 -4.205634
v  2.973832 -2.733772 -5.150829
v  1.539369 -2.733772 -5.745003
v  0.000000 -2.733772 -5.947665
v  -1.539368 -2.733772 -5.745003
v  -2.973831 -2.733772 -5.150829
v  -4.205633 -2.733772 -4.205635
v  -5.150828 -2.733772 -2.973834
v  -5.745003 -2.733772 -1.539371
v  -5.947665 -2.733772 -0.000002
v  -5.745004 -2.733773 1.539366
v  -5.150830 -2.733773 2.973830
v  -4.205637 -2.733773 4.205632
v  -2.973834 -2.733773 5.150827
v  -1.539371 -2.733773 5.745002
v  -0.000003 -2.733773 5.947665
v  1.539366 -2.733773 5.745004
v  2.973829 -2.733773 5.150830
v  4.205632 -2.733773 4.205637
v  5.150827 -2.733773 2.973836
v  5.745002 -2.733773 1.539373
v  4.596003 2.857677 -1.231495
v  4.758132 2.857677 0.000000
v  4.120663 2.857677 -2.379066
v  3.364507 2.857677 -3.364507
v  2.379066 2.857680 -4.120663
v  1.231495 2.857680 -4.596002
v  0.000000 2.857680 -4.758132
v  -1.231495 2.857680 -4.596002
v  -2.379065 2.857680 -4.120663
v  -3.364506 2.857677 -3.364508
v  -4.120663 2.857677 -2.379067
v  -4.596002 2.857677 -1.231496
v  -4.758132 2.857677 -0.000001
v  -4.596003 2.857677 1.231494
v  -4.120664 2.857675 2.379065
v  -3.364509 2.857675 3.364506
v  -2.379067 2.857675 4.120663
v  -1.231497 2.857675 4.596003
v  -0.000002 2.857675 4.758132
v  1.231493 2.857675 4.596004
v  2.379064 2.857675 4.120665
v  3.364505 2.857675 3.364510
v  4.120662 2.857675 2.379069
v  4.596002 2.857677 1.231499
v  3.447002 8.449126 -0.923621
v  3.568599 8.449126 0.000001
v  3.090497 8.449129 -1.784299
v  2.523381 8.449129 -2.523380
v  1.784299 8.449129 -3.090497
v  0.923621 8.449129 -3.447001
v  -1.784299 8.449129 -3.090497
v  -0.923621 8.449129 -3.447001
v  -2.523380 8.449129 -2.523381
v  -3.090497 8.449129 -1.784299
v  -3.447002 8.449126 -0.923622
v  -3.568599 8.449126 -0.000001
v  -3.447002 8.449126 0.923621
v  -3.090498 8.449126 1.784299
v  -2.523382 8.449126 2.523380
v  -1.784301 8.449126 3.090497
v  -0.923623 8.449126 3.447002
v  1.784298 8.449126 3.090499
v  0.923620 8.449126 3.447003
v  2.523379 8.449126 2.523383
v  3.090496 8.449126 1.784302
v  3.447001 8.449126 0.923625
v  2.298001 14.040576 -0.615746
v  2.379066 14.040576 0.000001
v  2.060331 14.040576 -1.189532
v  1.682253 14.040578 -1.682252
v  1.189533 14.040578 -2.060330
v  0.615748 14.040578 -2.298000
v  0.000000 14.040578 -2.379065
v  0.000000 8.449129 -3.568598
v  -0.615747 14.040578 -2.298000
v  -1.189533 14.040578 -2.060330
v  -1.682253 14.040578 -1.682253
v  -2.060331 14.040576 -1.189532
v  -2.298001 14.040576 -0.615747
v  -2.379066 14.040576 0.000000
v  -2.298001 14.040576 0.615748
v  -2.060332 14.040576 1.189533
v  -1.682254 14.040576 1.682254
v  -1.189534 14.040576 2.060332
v  -0.615748 14.040576 2.298002
v  -0.000001 14.040576 2.379067
v  -0.000002 8.449126 3.568600
v  0.615746 14.040576 2.298002
v  1.189532 14.040576 2.060333
v  1.682253 14.040576 1.682256
v  2.060331 14.040576 1.189535
v  2.298001 14.040576 0.615750
v  1.149001 19.632027 -0.307872
v  1.189533 19.632027 0.000002
v  1.030166 19.632027 -0.594765
v  0.841127 19.632027 -0.841125
v  0.594766 19.632027 -1.030164
v  0.307874 19.632027 -1.148999
v  0.000000 19.632027 -1.189531
v  -0.307874 19.632027 -1.148999
v  -0.594766 19.632027 -1.030164
v  -0.841127 19.632027 -0.841125
v  -1.030166 19.632027 -0.594765
v  -1.149000 19.632027 -0.307873
v  -1.189533 19.632027 0.000001
v  -1.149001 19.632027 0.307875
v  -1.030166 19.632027 0.594768
v  -0.841127 19.632027 0.841128
v  -0.594767 19.632027 1.030167
v  -0.307874 19.632027 1.149002
v  -0.000001 19.632027 1.189535
v  0.307873 19.632027 1.149002
v  0.594766 19.632027 1.030168
v  0.841126 19.632027 0.841129
v  1.030165 19.632027 0.594769
v  1.149000 19.632027 0.307876
v  0.000000 25.223475 0.000002
# 122 vertices

vn 0.000000 -1.000000 0.000000
vn 0.902358 0.430988 0.000000
vn 0.871610 0.430988 -0.233547
vn 0.781465 0.430988 -0.451179
vn 0.638063 0.430988 -0.638063
vn 0.451179 0.430988 -0.781464
vn 0.451179 0.430988 -0.781465
vn 0.233547 0.430988 -0.871610
vn 0.000000 0.430988 -0.902357
vn -0.233547 0.430988 -0.871610
vn -0.451179 0.430988 -0.781465
vn -0.638063 0.430988 -0.638063
vn -0.781464 0.430988 -0.451179
vn -0.871610 0.430988 -0.233548
vn -0.902358 0.430988 0.000000
vn -0.871610 0.430988 0.233547
vn -0.871611 0.430988 0.233547
vn -0.781465 0.430988 0.451178
vn -0.638063 0.430988 0.638063
vn -0.451179 0.430988 0.781464
vn -0.233548 0.430988 0.871610
vn 0.000000 0.430988 0.902358
vn 0.233547 0.430988 0.871611
vn 0.451178 0.430988 0.781465
vn 0.638063 0.430988 0.638064
vn 0.781464 0.430988 0.451179
vn 0.871610 0.430988 0.233548
vn 0.902357 0.430988 0.000000
vn 0.233547 0.430989 -0.871610
vn -0.233547 0.430989 -0.871610
vn -0.781464 0.430989 -0.451179
vn -0.902357 0.430988 0.000000
vn 0.638063 0.430988 0.638063
vn 0.451179 0.430989 -0.781464
vn 0.000000 0.430989 -0.902357
vn -0.451179 0.430989 -0.781465
vn -0.871610 0.430988 -0.233547
vn 0.781464 0.430988 -0.451179
vn 0.896057 0.427979 -0.117968
vn 0.896057 0.427979 0.117969
vn 0.834992 0.427979 -0.345865
vn 0.717024 0.427979 -0.550192
vn 0.550192 0.427979 -0.717024
vn 0.345865 0.427979 -0.834992
vn 0.117968 0.427979 -0.896057
vn -0.117968 0.427979 -0.896057
vn -0.345865 0.427979 -0.834992
vn -0.550191 0.427979 -0.717024
vn -0.717024 0.427979 -0.550192
vn -0.834992 0.427979 -0.345865
vn -0.896057 0.427979 -0.117968
vn -0.896057 0.427979 0.117968
vn -0.834992 0.427979 0.345865
vn -0.717024 0.427979 0.550191
vn -0.550192 0.427979 0.717024
vn -0.345865 0.427979 0.834992
vn -0.117968 0.427979 0.896057
vn 0.117968 0.427979 0.896057
vn 0.345864 0.427979 0.834992
vn 0.550191 0.427979 0.717024
vn 0.717023 0.427979 0.550192
vn 0.834992 0.427979 0.345865
vn 1.000000 0.000000 0.000000
# 63 vertex normals

vt 0.500000 0.000000 0.000000
vt 0.708333 0.000000 1.000000
vt 0.750000 0.000000 1.000000
vt 0.666667 0.000000 1.000000
vt 0.625000 0.000000 1.000000
vt 0.583333 0.000000 1.000000
vt 0.541667 0.000000 1.000000
vt 0.500000 0.000000 1.000000
vt 0.458333 0.000000 1.000000
vt 0.416667 0.000000 1.000000
vt 0.375000 0.000000 1.000000
vt 0.333333 0.000000 1.000000
vt 0.291667 0.000000 1.000000
vt 0.250000 0.000000 1.000000
vt 0.208333 0.000000 1.000000
vt 0.166667 0.000000 1.000000
vt 0.125000 0.000000 1.000000
vt 0.083333 0.000000 1.000000
vt 0.041667 0.000000 1.000000
vt 0.000000 0.000000 1.000000
vt -0.041667 0.000000 1.000000
vt 0.916667 0.000000 1.000000
vt 0.958333 0.000000 1.000000
vt 0.875000 0.000000 1.000000
vt 0.833333 0.000000 1.000000
vt 0.791667 0.000000 1.000000
vt 0.708333 0.200000 0.800000
vt 0.750000 0.200000 0.800000
vt 0.666667 0.200000 0.800000
vt 0.625000 0.200000 0.800000
vt 0.583333 0.200000 0.800000
vt 0.541667 0.200000 0.800000
vt 0.500000 0.200000 0.800000
vt 0.458333 0.200000 0.800000
vt 0.416667 0.200000 0.800000
vt 0.375000 0.200000 0.800000
vt 0.333333 0.200000 0.800000
vt 0.291667 0.200000 0.800000
vt 0.250000 0.200000 0.800000
vt 0.208333 0.200000 0.800000
vt 0.166667 0.200000 0.800000
vt 0.125000 0.200000 0.800000
vt 0.083333 0.200000 0.800000
vt 0.041667 0.200000 0.800000
vt 0.000000 0.200000 0.800000
vt -0.041667 0.200000 0.800000
vt 0.916667 0.200000 0.800000
vt 0.958333 0.200000 0.800000
vt 0.875000 0.200000 0.800000
vt 0.833333 0.200000 0.800000
vt 0.791667 0.200000 0.800000
vt 0.708333 0.400000 0.600000
vt 0.750000 0.400000 0.600000
vt 0.666667 0.400000 0.600000
vt 0.625000 0.400000 0.600000
vt 0.583333 0.400000 0.600000
vt 0.541667 0.400000 0.600000
vt 0.416667 0.400000 0.600000
vt 0.458333 0.400000 0.600000
vt 0.375000 0.400000 0.600000
vt 0.333333 0.400000 0.600000
vt 0.291667 0.400000 0.600000
vt 0.250000 0.400000 0.600000
vt 0.208333 0.400000 0.600000
vt 0.166667 0.400000 0.600000
vt 0.125000 0.400000 0.600000
vt 0.083333 0.400000 0.600000
vt 0.041667 0.400000 0.600000
vt 0.916667 0.400000 0.600000
vt 0.958333 0.400000 0.600000
vt 0.875000 0.400000 0.600000
vt 0.833333 0.400000 0.600000
vt 0.791667 0.400000 0.600000
vt 0.708333 0.600000 0.400000
vt 0.750000 0.600000 0.400000
vt 0.666667 0.600000 0.400000
vt 0.625000 0.600000 0.400000
vt 0.583333 0.600000 0.400000
vt 0.541667 0.600000 0.400000
vt 0.500000 0.600000 0.400000
vt 0.500000 0.400000 0.600000
vt 0.458333 0.600000 0.400000
vt 0.416667 0.600000 0.400000
vt 0.375000 0.600000 0.400000
vt 0.333333 0.600000 0.400000
vt 0.291667 0.600000 0.400000
vt 0.250000 0.600000 0.400000
vt 0.208333 0.600000 0.400000
vt 0.166667 0.600000 0.400000
vt 0.125000 0.600000 0.400000
vt 0.083333 0.600000 0.400000
vt 0.041667 0.600000 0.400000
vt 0.000000 0.600000 0.400000
vt 0.000000 0.400000 0.600000
vt -0.041667 0.600000 0.400000
vt -0.041667 0.400000 0.600000
vt 0.916667 0.600000 0.400000
vt 0.958333 0.600000 0.400000
vt 0.875000 0.600000 0.400000
vt 0.833333 0.600000 0.400000
vt 0.791667 0.600000 0.400000
vt 0.708333 0.800000 0.200000
vt 0.750000 0.800000 0.200000
vt 0.666667 0.800000 0.200000
vt 0.625000 0.800000 0.200000
vt 0.583333 0.800000 0.200000
vt 0.541667 0.800000 0.200000
vt 0.500000 0.800000 0.200000
vt 0.458333 0.800000 0.200000
vt 0.416667 0.800000 0.200000
vt 0.375000 0.800000 0.200000
vt 0.333333 0.800000 0.200000
vt 0.291667 0.800000 0.200000
vt 0.250000 0.800000 0.200000
vt 0.208333 0.800000 0.200000
vt 0.166667 0.800000 0.200000
vt 0.125000 0.800000 0.200000
vt 0.083333 0.800000 0.200000
vt 0.041667 0.800000 0.200000
vt 0.000000 0.800000 0.200000
vt -0.041667 0.800000 0.200000
vt 0.916667 0.800000 0.200000
vt 0.958333 0.800000 0.200000
vt 0.875000 0.800000 0.200000
vt 0.833333 0.800000 0.200000
vt 0.791667 0.800000 0.200000
vt 0.500000 1.000000 0.000000
# 127 texture coords

g Cone001
usemtl wire_135110008
s 1
f 1/1/1 2/2/1 3/3/1 
f 1/1/1 4/4/1 2/2/1 
f 1/1/1 5/5/1 4/4/1 
f 1/1/1 6/6/1 5/5/1 
f 1/1/1 7/7/1 6/6/1 
f 1/1/1 8/8/1 7/7/1 
f 1/1/1 9/9/1 8/8/1 
f 1/1/1 10/10/1 9/9/1 
f 1/1/1 11/11/1 10/10/1 
f 1/1/1 12/12/1 11/11/1 
f 1/1/1 13/13/1 12/12/1 
f 1/1/1 14/14/1 13/13/1 
f 1/1/1 15/15/1 14/14/1 
f 1/1/1 16/16/1 15/15/1 
f 1/1/1 17/17/1 16/16/1 
f 1/1/1 18/18/1 17/17/1 
f 1/1/1 19/19/1 18/18/1 
f 1/1/1 20/20/1 19/19/1 
f 1/1/1 21/21/1 20/20/1 
f 1/1/1 22/22/1 21/23/1 
f 1/1/1 23/24/1 22/22/1 
f 1/1/1 24/25/1 23/24/1 
f 1/1/1 25/26/1 24/25/1 
f 1/1/1 3/3/1 25/26/1 
s 8
f 3/3/2 26/27/3 27/28/2 
f 3/3/2 2/2/3 26/27/3 
f 2/2/3 28/29/4 26/27/3 
f 2/2/3 4/4/4 28/29/4 
f 4/4/4 29/30/5 28/29/4 
f 4/4/4 5/5/5 29/30/5 
f 5/5/5 30/31/6 29/30/5 
f 5/5/5 6/6/7 30/31/6 
f 6/6/7 31/32/8 30/31/6 
f 6/6/7 7/7/8 31/32/8 
f 7/7/8 32/33/9 31/32/8 
f 7/7/8 8/8/9 32/33/9 
f 8/8/9 33/34/10 32/33/9 
f 8/8/9 9/9/10 33/34/10 
f 9/9/10 34/35/11 33/34/10 
f 9/9/10 10/10/11 34/35/11 
f 10/10/11 35/36/12 34/35/11 
f 10/10/11 11/11/12 35/36/12 
f 11/11/12 36/37/13 35/36/12 
f 11/11/12 12/12/13 36/37/13 
f 12/12/13 37/38/14 36/37/13 
f 12/12/13 13/13/14 37/38/14 
f 13/13/14 38/39/15 37/38/14 
f 13/13/14 14/14/15 38/39/15 
f 14/14/15 39/40/16 38/39/15 
f 14/14/15 15/15/17 39/40/16 
f 15/15/17 40/41/18 39/40/16 
f 15/15/17 16/16/18 40/41/18 
f 16/16/18 41/42/19 40/41/18 
f 16/16/18 17/17/19 41/42/19 
f 17/17/19 42/43/20 41/42/19 
f 17/17/19 18/18/20 42/43/20 
f 18/18/20 43/44/21 42/43/20 
f 18/18/20 19/19/21 43/44/21 
f 19/19/21 44/45/22 43/44/21 
f 19/19/21 20/20/22 44/45/22 
f 20/20/22 45/46/23 44/45/22 
f 20/20/22 21/21/23 45/46/23 
f 21/23/23 46/47/24 45/48/23 
f 21/23/23 22/22/24 46/47/24 
f 22/22/24 47/49/25 46/47/24 
f 22/22/24 23/24/25 47/49/25 
f 23/24/25 48/50/26 47/49/25 
f 23/24/25 24/25/26 48/50/26 
f 24/25/26 49/51/27 48/50/26 
f 24/25/26 25/26/27 49/51/27 
f 25/26/27 27/28/2 49/51/27 
f 25/26/27 3/3/2 27/28/2 
f 27/28/2 50/52/3 51/53/28 
f 27/28/2 26/27/3 50/52/3 
f 26/27/3 52/54/4 50/52/3 
f 26/27/3 28/29/4 52/54/4 
f 28/29/4 53/55/5 52/54/4 
f 28/29/4 29/30/5 53/55/5 
f 29/30/5 54/56/6 53/55/5 
f 29/30/5 30/31/6 54/56/6 
f 30/31/6 55/57/29 54/56/6 
f 30/31/6 31/32/8 55/57/29 
f 33/34/10 56/58/11 57/59/30 
f 33/34/10 34/35/11 56/58/11 
f 34/35/11 58/60/12 56/58/11 
f 34/35/11 35/36/12 58/60/12 
f 35/36/12 59/61/31 58/60/12 
f 35/36/12 36/37/13 59/61/31 
f 36/37/13 60/62/14 59/61/31 
f 36/37/13 37/38/14 60/62/14 
f 37/38/14 61/63/32 60/62/14 
f 37/38/14 38/39/15 61/63/32 
f 38/39/15 62/64/16 61/63/32 
f 38/39/15 39/40/16 62/64/16 
f 39/40/16 63/65/18 62/64/16 
f 39/40/16 40/41/18 63/65/18 
f 40/41/18 64/66/19 63/65/18 
f 40/41/18 41/42/19 64/66/19 
f 41/42/19 65/67/20 64/66/19 
f 41/42/19 42/43/20 65/67/20 
f 42/43/20 66/68/21 65/67/20 
f 42/43/20 43/44/21 66/68/21 
f 45/48/23 67/69/24 68/70/23 
f 45/48/23 46/47/24 67/69/24 
f 46/47/24 69/71/33 67/69/24 
f 46/47/24 47/49/25 69/71/33 
f 47/49/25 70/72/26 69/71/33 
f 47/49/25 48/50/26 70/72/26 
f 48/50/26 71/73/27 70/72/26 
f 48/50/26 49/51/27 71/73/27 
f 49/51/27 51/53/28 71/73/27 
f 49/51/27 27/28/2 51/53/28 
f 51/53/28 72/74/3 73/75/28 
f 51/53/28 50/52/3 72/74/3 
f 50/52/3 74/76/4 72/74/3 
f 50/52/3 52/54/4 74/76/4 
f 52/54/4 75/77/5 74/76/4 
f 52/54/4 53/55/5 75/77/5 
f 53/55/5 76/78/34 75/77/5 
f 53/55/5 54/56/6 76/78/34 
f 54/56/6 77/79/29 76/78/34 
f 54/56/6 55/57/29 77/79/29 
f 55/57/29 78/80/9 77/79/29 
f 55/57/29 79/81/35 78/80/9 
f 79/81/35 80/82/30 78/80/9 
f 79/81/35 57/59/30 80/82/30 
f 57/59/30 81/83/36 80/82/30 
f 57/59/30 56/58/11 81/83/36 
f 56/58/11 82/84/12 81/83/36 
f 56/58/11 58/60/12 82/84/12 
f 58/60/12 83/85/13 82/84/12 
f 58/60/12 59/61/31 83/85/13 
f 59/61/31 84/86/37 83/85/13 
f 59/61/31 60/62/14 84/86/37 
f 60/62/14 85/87/15 84/86/37 
f 60/62/14 61/63/32 85/87/15 
f 61/63/32 86/88/16 85/87/15 
f 61/63/32 62/64/16 86/88/16 
f 62/64/16 87/89/18 86/88/16 
f 62/64/16 63/65/18 87/89/18 
f 63/65/18 88/90/19 87/89/18 
f 63/65/18 64/66/19 88/90/19 
f 64/66/19 89/91/20 88/90/19 
f 64/66/19 65/67/20 89/91/20 
f 65/67/20 90/92/21 89/91/20 
f 65/67/20 66/68/21 90/92/21 
f 66/68/21 91/93/22 90/92/21 
f 66/68/21 92/94/22 91/93/22 
f 92/94/22 93/95/23 91/93/22 
f 92/94/22 68/96/23 93/95/23 
f 68/70/23 94/97/24 93/98/23 
f 68/70/23 67/69/24 94/97/24 
f 67/69/24 95/99/25 94/97/24 
f 67/69/24 69/71/33 95/99/25 
f 69/71/33 96/100/26 95/99/25 
f 69/71/33 70/72/26 96/100/26 
f 70/72/26 97/101/27 96/100/26 
f 70/72/26 71/73/27 97/101/27 
f 71/73/27 73/75/28 97/101/27 
f 71/73/27 51/53/28 73/75/28 
f 73/75/28 98/102/3 99/103/2 
f 73/75/28 72/74/3 98/102/3 
f 72/74/3 100/104/38 98/102/3 
f 72/74/3 74/76/4 100/104/38 
f 74/76/4 101/105/5 100/104/38 
f 74/76/4 75/77/5 101/105/5 
f 75/77/5 102/106/34 101/105/5 
f 75/77/5 76/78/34 102/106/34 
f 76/78/34 103/107/8 102/106/34 
f 76/78/34 77/79/29 103/107/8 
f 77/79/29 104/108/9 103/107/8 
f 77/79/29 78/80/9 104/108/9 
f 78/80/9 105/109/10 104/108/9 
f 78/80/9 80/82/30 105/109/10 
f 80/82/30 106/110/11 105/109/10 
f 80/82/30 81/83/36 106/110/11 
f 81/83/36 107/111/12 106/110/11 
f 81/83/36 82/84/12 107/111/12 
f 82/84/12 108/112/13 107/111/12 
f 82/84/12 83/85/13 108/112/13 
f 83/85/13 109/113/37 108/112/13 
f 83/85/13 84/86/37 109/113/37 
f 84/86/37 110/114/15 109/113/37 
f 84/86/37 85/87/15 110/114/15 
f 85/87/15 111/115/16 110/114/15 
f 85/87/15 86/88/16 111/115/16 
f 86/88/16 112/116/18 111/115/16 
f 86/88/16 87/89/18 112/116/18 
f 87/89/18 113/117/19 112/116/18 
f 87/89/18 88/90/19 113/117/19 
f 88/90/19 114/118/20 113/117/19 
f 88/90/19 89/91/20 114/118/20 
f 89/91/20 115/119/21 114/118/20 
f 89/91/20 90/92/21 115/119/21 
f 90/92/21 116/120/22 115/119/21 
f 90/92/21 91/93/22 116/120/22 
f 91/93/22 117/121/23 116/120/22 
f 91/93/22 93/95/23 117/121/23 
f 93/98/23 118/122/24 117/123/23 
f 93/98/23 94/97/24 118/122/24 
f 94/97/24 119/124/25 118/122/24 
f 94/97/24 95/99/25 119/124/25 
f 95/99/25 120/125/26 119/124/25 
f 95/99/25 96/100/26 120/125/26 
f 96/100/26 121/126/27 120/125/26 
f 96/100/26 97/101/27 121/126/27 
f 97/101/27 99/103/2 121/126/27 
f 97/101/27 73/75/28 99/103/2 
f 99/103/2 122/127/39 122/127/40 
f 99/103/2 98/102/3 122/127/39 
f 98/102/3 122/127/41 122/127/39 
f 98/102/3 100/104/38 122/127/41 
f 100/104/38 122/127/42 122/127/41 
f 100/104/38 101/105/5 122/127/42 
f 101/105/5 122/127/43 122/127/42 
f 101/105/5 102/106/34 122/127/43 
f 102/106/34 122/127/44 122/127/43 
f 102/106/34 103/107/8 122/127/44 
f 103/107/8 122/127/45 122/127/44 
f 103/107/8 104/108/9 122/127/45 
f 104/108/9 122/127/46 122/127/45 
f 104/108/9 105/109/10 122/127/46 
f 105/109/10 122/127/47 122/127/46 
f 105/109/10 106/110/11 122/127/47 
f 106/110/11 122/127/48 122/127/47 
f 106/110/11 107/111/12 122/127/48 
f 107/111/12 122/127/49 122/127/48 
f 107/111/12 108/112/13 122/127/49 
f 108/112/13 122/127/50 122/127/49 
f 108/112/13 109/113/37 122/127/50 
f 109/113/37 122/127/51 122/127/50 
f 109/113/37 110/114/15 122/127/51 
f 110/114/15 122/127/52 122/127/51 
f 110/114/15 111/115/16 122/127/52 
f 111/115/16 122/127/53 122/127/52 
f 111/115/16 112/116/18 122/127/53 
f 112/116/18 122/127/54 122/127/53 
f 112/116/18 113/117/19 122/127/54 
f 113/117/19 122/127/55 122/127/54 
f 113/117/19 114/118/20 122/127/55 
f 114/118/20 122/127/56 122/127/55 
f 114/118/20 115/119/21 122/127/56 
f 115/119/21 122/127/57 122/127/56 
f 115/119/21 116/120/22 122/127/57 
f 116/120/22 122/127/58 122/127/57 
f 116/120/22 117/121/23 122/127/58 
f 117/123/23 122/127/59 122/127/58 
f 117/123/23 118/122/24 122/127/59 
f 118/122/24 122/127/60 122/127/59 
f 118/122/24 119/124/25 122/127/60 
f 119/124/25 122/127/61 122/127/60 
f 119/124/25 120/125/26 122/127/61 
f 120/125/26 122/127/62 122/127/61 
f 120/125/26 121/126/27 122/127/62 
f 121/126/27 122/127/40 122/127/62 
f 121/126/27 99/103/2 122/127/40 
s 1
f 122/127/63 122/127/63 122/127/63 
f 122/127/63 122/127/63 122/127/63 
f 122/127/63 122/127/63 122/127/63 
f 122/127/63 122/127/63 122/127/63 
f 122/127/63 122/127/63 122/127/63 
f 122/127/63 122/127/63 122/127/63 
f 122/127/63 122/127/63 122/127/63 
f 122/127/63 122/127/63 122/127/63 
f 122/127/63 122/127/63 122/127/63 
f 122/127/63 122/127/63 122/127/63 
f 122/127/63 122/127/63 122/127/63 
f 122/127/63 122/127/63 122/127/63 
f 122/127/63 122/127/63 122/127/63 
f 122/127/63 122/127/63 122/127/63 
f 122/127/63 122/127/63 122/127/63 
f 122/127/63 122/127/63 122/127/63 
f 122/127/63 122/127/63 122/127/63 
f 122/127/63 122/127/63 122/127/63 
f 122/127/63 122/127/63 122/127/63 
f 122/127/63 122/127/63 122/127/63 
f 122/127/63 122/127/63 122/127/63 
f 122/127/63 122/127/63 122/127/63 
f 122/127/63 122/127/63 122/127/63 
f 122/127/63 122/127/63 122/127/63 
# 280 faces

