# 3ds Max Wavefront OBJ Exporter v0.97b - (c)2007 guruware
# File Created: 13.12.2013 20:55:46

mtllib cube.mtl

#
# object Cube_Cube_Material
#

v  1.000000 0.000000 0.000000
v  1.000000 0.000000 1.000000
v  0.000000 0.000000 1.000000
v  0.000000 0.000000 0.000000
v  1.000000 1.000000 0.000000
v  0.000000 1.000000 0.000000
v  0.000000 1.000000 1.000000
v  1.000000 1.000000 1.000000
# 8 vertices

vn 0.000000 -1.000000 0.000000
vn 0.000000 1.000000 0.000000
vn 1.000000 0.000000 0.000000
vn 0.000000 0.000000 1.000000
vn -1.000000 0.000000 0.000000
vn 0.000000 0.000000 -1.000000
# 6 vertex normals

g Cube_Cube_Material
usemtl Material
s off
f 1//1 2//1 3//1 
f 1//1 3//1 4//1 
f 5//2 6//2 7//2 
f 5//2 7//2 8//2 
f 1//3 5//3 8//3 
f 1//3 8//3 2//3 
f 2//4 8//4 7//4 
f 2//4 7//4 3//4 
f 3//5 7//5 6//5 
f 3//5 6//5 4//5 
f 5//6 1//6 4//6 
f 5//6 4//6 6//6 
# 12 faces

