# 3ds Max Wavefront OBJ Exporter v0.97b - (c)2007 guruware
# File Created: 14.12.2013 16:02:40

mtllib pyramid.mtl

#
# object Pyramid001
#

v  0.000000 11.804770 0.000000
v  -7.344069 -1.156923 6.989587
v  7.344069 -1.156923 6.989587
v  7.344069 -1.156922 -6.989587
v  -7.344069 -1.156922 -6.989587
v  0.000000 -1.156923 0.000000
# 6 vertices

vn 0.000000 0.513521 0.858077
vn 0.859197 0.511645 0.000000
vn 0.000000 0.513521 -0.858077
vn -0.859197 0.511645 0.000000
vn 0.000000 -1.000000 0.000000
# 5 vertex normals

vt 0.500000 1.000000 0.000000
vt 0.000000 0.000000 0.000000
vt 1.000000 0.000000 0.000000
vt 0.002475 0.000000 0.000000
vt 1.002475 0.000000 0.000000
vt 0.000000 1.000000 0.000000
vt 0.500000 0.500000 0.000000
vt 1.000000 1.000000 0.000000
# 8 texture coords

g Pyramid001
usemtl wire_057008136
s 4
f 1/1/1 2/2/1 3/3/1 
s 2
f 1/1/2 3/4/2 4/5/2 
s 16
f 1/1/3 4/2/3 5/3/3 
s 32
f 1/1/4 5/4/4 2/5/4 
s 8
f 2/6/5 6/7/5 3/8/5 
f 3/8/5 6/7/5 4/3/5 
f 4/3/5 6/7/5 5/2/5 
f 5/2/5 6/7/5 2/6/5 
# 8 faces

